<svg xmlns="http://www.w3.org/2000/svg" width="960" height="480" viewBox="0 0 960 480">
<text x="220" y="20" font-size="19.5" text-anchor="middle" font-family="Times,serif" font-weight="bold">(a) Identical-state fork</text>
<text x="720" y="20" font-size="19.5" text-anchor="middle" font-family="Times,serif" font-weight="bold">(b) State-dependent rescue</text>
<rect x="120" y="22" width="200" height="40" rx="6" fill="#eee" stroke="#000"/><text x="220" y="48" font-size="16.9" text-anchor="middle" font-family="Times,serif" font-weight="bold">SAME ROUND-1 STATE</text><text x="220" y="34" font-size="13.0" text-anchor="middle" font-family="Times,serif" font-style="italic">(transcript, beliefs, registry, state hash)</text><line x1="220" y1="62" x2="60" y2="130" stroke="#000" stroke-width="1.2"/><rect x="20" y="130" width="80" height="28" rx="4" fill="#fff" stroke="#000"/><text x="60" y="148" font-size="15.6" text-anchor="middle" font-family="Times,serif" font-weight="bold">CONTROL</text><line x1="220" y1="62" x2="220" y2="130" stroke="#000" stroke-width="1.2"/><rect x="180" y="130" width="80" height="28" rx="4" fill="#fff" stroke="#000"/><text x="220" y="148" font-size="15.6" text-anchor="middle" font-family="Times,serif" font-weight="bold">SUPPORTS</text><line x1="220" y1="62" x2="380" y2="130" stroke="#000" stroke-width="1.2"/><rect x="340" y="130" width="80" height="28" rx="4" fill="#fff" stroke="#000"/><text x="380" y="148" font-size="15.6" text-anchor="middle" font-family="Times,serif" font-weight="bold">ATTACKS</text><line x1="60" y1="158" x2="220" y2="200" stroke="#000" stroke-width="1.2"/><line x1="220" y1="158" x2="220" y2="200" stroke="#000" stroke-width="1.2"/><line x1="380" y1="158" x2="220" y2="200" stroke="#000" stroke-width="1.2"/><rect x="130" y="200" width="180" height="28" rx="4" fill="#eee" stroke="#000"/><text x="220" y="218" font-size="15.6" text-anchor="middle" font-family="Times,serif">private final beliefs</text><line x1="220" y1="228" x2="220" y2="260" stroke="#000" stroke-width="1.2"/><rect x="150" y="260" width="140" height="28" rx="4" fill="#fff" stroke="#000"/><text x="220" y="278" font-size="15.6" text-anchor="middle" font-family="Times,serif">offline Brier</text><text x="220" y="310" font-size="13.0" text-anchor="middle" font-family="Times,serif" font-style="italic">same realized past, different public evidence</text>
<line x1="500" y1="420" x2="880" y2="420" stroke="#000" stroke-width="1.5"/><line x1="500" y1="420" x2="500" y2="60" stroke="#000" stroke-width="1.5"/><line x1="500" y1="180" x2="880" y2="180" stroke="#999" stroke-width="1" stroke-dasharray="4,3"/><line x1="500" y1="420" x2="500" y2="424" stroke="#000"/><text x="500" y="438" font-size="14.3" text-anchor="middle" font-family="Times,serif">0.0</text><line x1="595" y1="420" x2="595" y2="424" stroke="#000"/><text x="595" y="438" font-size="14.3" text-anchor="middle" font-family="Times,serif">0.5</text><line x1="690" y1="420" x2="690" y2="424" stroke="#000"/><text x="690" y="438" font-size="14.3" text-anchor="middle" font-family="Times,serif">1.0</text><line x1="785" y1="420" x2="785" y2="424" stroke="#000"/><text x="785" y="438" font-size="14.3" text-anchor="middle" font-family="Times,serif">1.5</text><line x1="880" y1="420" x2="880" y2="424" stroke="#000"/><text x="880" y="438" font-size="14.3" text-anchor="middle" font-family="Times,serif">2.0</text><line x1="496" y1="420" x2="500" y2="420" stroke="#000"/><text x="492" y="424" font-size="14.3" text-anchor="end" font-family="Times,serif">-2.0</text><line x1="496" y1="360" x2="500" y2="360" stroke="#000"/><text x="492" y="364" font-size="14.3" text-anchor="end" font-family="Times,serif">-1.5</text><line x1="496" y1="300" x2="500" y2="300" stroke="#000"/><text x="492" y="304" font-size="14.3" text-anchor="end" font-family="Times,serif">-1.0</text><line x1="496" y1="240" x2="500" y2="240" stroke="#000"/><text x="492" y="244" font-size="14.3" text-anchor="end" font-family="Times,serif">-0.5</text><line x1="496" y1="180" x2="500" y2="180" stroke="#000"/><text x="492" y="184" font-size="14.3" text-anchor="end" font-family="Times,serif">0.0</text><line x1="496" y1="120" x2="500" y2="120" stroke="#000"/><text x="492" y="124" font-size="14.3" text-anchor="end" font-family="Times,serif">0.5</text><line x1="496" y1="60" x2="500" y2="60" stroke="#000"/><text x="492" y="64" font-size="14.3" text-anchor="end" font-family="Times,serif">1.0</text><circle cx="717.4312500000001" cy="277.5" r="3.2" fill="#000"/><circle cx="583.3625" cy="180" r="3.2" fill="#000"/><circle cx="634.425" cy="244.575" r="3.2" fill="#000"/><circle cx="630.9416666666666" cy="204.7" r="3.2" fill="#000"/><circle cx="574.21875" cy="177.075" r="3.2" fill="#000"/><circle cx="653.425" cy="192.525" r="3.2" fill="#000"/><circle cx="691.425" cy="227.625" r="3.2" fill="#000"/><circle cx="691.7944444444445" cy="298.8" r="3.2" fill="#000"/><circle cx="708.4590277777778" cy="372.15" r="3.2" fill="#000"/><circle cx="696.8875" cy="127.12499999999999" r="3.2" fill="#000"/><circle cx="660.19375" cy="205.1583333333333" r="3.2" fill="#000"/><circle cx="647.9328125" cy="252.37500000000003" r="3.2" fill="#000"/><circle cx="615.9" cy="180" r="3.2" fill="#000"/><circle cx="574.871875" cy="180" r="3.2" fill="#000"/><circle cx="577.6888888888889" cy="226.4" r="3.2" fill="#000"/><circle cx="560.68125" cy="180" r="3.2" fill="#000"/><circle cx="558.6888888888889" cy="180" r="3.2" fill="#000"/><circle cx="607.46875" cy="180.84375" r="3.2" fill="#000"/><circle cx="718.2625" cy="371.68125000000003" r="3.2" fill="#000"/><circle cx="674.7109375" cy="210.45" r="3.2" fill="#000"/><circle cx="718.85625" cy="313.0958333333333" r="3.2" fill="#000"/><circle cx="691.1875" cy="307.5" r="3.2" fill="#000"/><circle cx="614.11875" cy="183.82500000000002" r="3.2" fill="#000"/><circle cx="598.20625" cy="179.325" r="3.2" fill="#000"/><circle cx="546.2333333333333" cy="178.125" r="3.2" fill="#000"/><circle cx="669.45625" cy="200.1" r="3.2" fill="#000"/><circle cx="760.4583333333333" cy="253.91666666666663" r="3.2" fill="#000"/><circle cx="587.4" cy="168.52499999999998" r="3.2" fill="#000"/><circle cx="685.8140625" cy="180" r="3.2" fill="#000"/><circle cx="652.7421875" cy="190.12500000000003" r="3.2" fill="#000"/><circle cx="770.4333333333334" cy="193.33333333333334" r="3.2" fill="#000"/><circle cx="703.2340277777778" cy="341.70000000000005" r="3.2" fill="#000"/><circle cx="584.4015625" cy="180" r="3.2" fill="#000"/><circle cx="717.1640625" cy="420" r="3.2" fill="#000"/><circle cx="660.90625" cy="208.575" r="3.2" fill="#000"/><circle cx="651.2875" cy="192" r="3.2" fill="#000"/><circle cx="713.15625" cy="179.54999999999998" r="3.2" fill="#000"/><circle cx="719.2125" cy="250.12499999999997" r="3.2" fill="#000"/><circle cx="593.21875" cy="180" r="3.2" fill="#000"/><circle cx="680.975" cy="187.77916666666667" r="3.2" fill="#000"/><circle cx="766.35625" cy="180" r="3.2" fill="#000"/><circle cx="656.9875000000001" cy="195.475" r="3.2" fill="#000"/><circle cx="616.25625" cy="191.7" r="3.2" fill="#000"/><circle cx="540.1111111111111" cy="180" r="3.2" fill="#000"/><circle cx="560.3777777777777" cy="180" r="3.2" fill="#000"/><text x="690" y="52" font-size="18.2" text-anchor="middle" font-family="Times,serif" font-style="italic">Spearman ρ = -0.60</text><text x="690" y="460" font-size="16.9" text-anchor="middle" font-family="Times,serif">pre-treatment round-1 Brier</text><text x="460" y="240" font-size="16.9" text-anchor="middle" font-family="Times,serif" transform="rotate(-90 460 240)">Brier(ATTACKS) − Brier(CONTROL)</text>
</svg>
